<?xml version="1.0" encoding="UTF-8" standalone="no"?>
<!-- Created with Inkscape (http://www.inkscape.org/) -->

<svg
        xmlns:dc="http://purl.org/dc/elements/1.1/"
        xmlns:cc="http://creativecommons.org/ns#"
        xmlns:rdf="http://www.w3.org/1999/02/22-rdf-syntax-ns#"
        xmlns="http://www.w3.org/2000/svg"
        xmlns:sodipodi="http://sodipodi.sourceforge.net/DTD/sodipodi-0.dtd"
        xmlns:inkscape="http://www.inkscape.org/namespaces/inkscape"
        width="512"
        height="512"
        viewBox="0 0 135.46667 135.46667"
        version="1.1"
        id="svg8"
        inkscape:version="0.92.2 (5c3e80d, 2017-08-06)"
        sodipodi:docname="simple_invulner_0.svg">
    <defs
            id="defs2"/>
    <sodipodi:namedview
            id="base"
            pagecolor="#ffffff"
            bordercolor="#666666"
            borderopacity="1.0"
            inkscape:pageopacity="0.0"
            inkscape:pageshadow="2"
            inkscape:zoom="1.4142136"
            inkscape:cx="297.79139"
            inkscape:cy="359.00202"
            inkscape:document-units="mm"
            inkscape:current-layer="layer1"
            showgrid="true"
            units="px"
            width="512px"
            viewbox-width="512"
            viewbox-height="512"
            inkscape:pagecheckerboard="false"
            inkscape:showpageshadow="false"
            showborder="true"
            borderlayer="false"
            inkscape:window-width="2560"
            inkscape:window-height="1381"
            inkscape:window-x="0"
            inkscape:window-y="0"
            inkscape:window-maximized="1">
        <inkscape:grid
                type="xygrid"
                id="grid29"
                spacingx="4.2333334"
                spacingy="4.2333334"
                dotted="false"
                empspacing="8"/>
    </sodipodi:namedview>
    <metadata
            id="metadata5">
        <rdf:RDF>
            <cc:Work
                    rdf:about="">
                <dc:format>image/svg+xml</dc:format>
                <dc:type
                        rdf:resource="http://purl.org/dc/dcmitype/StillImage"/>
                <dc:title/>
                <cc:license
                        rdf:resource="http://creativecommons.org/publicdomain/zero/1.0/"/>
            </cc:Work>
            <cc:License
                    rdf:about="http://creativecommons.org/publicdomain/zero/1.0/">
                <cc:permits
                        rdf:resource="http://creativecommons.org/ns#Reproduction"/>
                <cc:permits
                        rdf:resource="http://creativecommons.org/ns#Distribution"/>
                <cc:permits
                        rdf:resource="http://creativecommons.org/ns#DerivativeWorks"/>
            </cc:License>
        </rdf:RDF>
    </metadata>
    <g
            inkscape:label="Calque 1"
            inkscape:groupmode="layer"
            id="layer1"
            transform="translate(0,-161.53333)">
        <g
                id="g1453"
                transform="matrix(0.86416121,0,0,0.86416121,8.8625611,29.762858)">
            <path
                    style="fill:#ffffff"
                    d="m 33.442021,184.27155 6.473546,36.43134 -0.390439,0.27373 0.149177,0.44435 -27.42463,25.79895 37.900173,5.31441 0.149177,0.44613 h 0.486206 l 16.947247,33.14316 4.143806,-8.09961 12.805282,-25.04355 h 0.486206 l 0.149177,-0.44613 37.900171,-5.31441 -27.424629,-25.79895 0.149178,-0.44435 -0.390439,-0.27373 6.47355,-36.43134 -33.900022,17.19989 -0.39228,-0.27549 -0.392281,0.27549 z m 12.269349,16.29875 13.295173,6.74523 -5.37774,3.77164 -5.377739,3.77164 z m 44.042215,0 -2.537852,14.28674 -5.377739,-3.76987 -5.379581,-3.77164 z m -22.019266,11.6473 8.672527,6.08226 8.674367,6.08225 -3.313203,9.84146 -3.313203,9.83968 H 67.732478 57.01199 l -3.313203,-9.83968 -3.313203,-9.84146 8.674367,-6.08225 z m -24.875729,18.65913 2.053486,6.10181 2.053486,6.10003 -14.862451,-2.08311 z m 49.749617,0 10.755473,10.11873 -14.862446,2.08311 2.053487,-6.10003 z m -31.520553,22.10373 h 6.644824 6.646665 l -6.644824,12.99634 z"
                    id="path1441"
                    inkscape:connector-curvature="0"/>
        </g>
    </g>
</svg>
